PathFileType	4	(X/Y/Z)	 s05c0103.trc
DataRate	CameraRate	NumFrames	NumMarkers	Units	OrigDataRate	OrigDataStartFrame	OrigNumFrames
200	200	4	49	mm	200	1251	2000
Frame#	Time	racr			lacr			c7			jug			rlel			rdr			llel			ldr			s2			lic			ric			lasi			rasi			rpsi			lpsi			rgt			lgt			rth1			rth2			rth3			rth4			rlfc			rsh1			rsh2			rsh3			rsh4			rlmal			rmmal			rcal			rtoe			rmt5			lth1			lth2			lth4			lth3			llfc			lmfc			lsh1			lsh2			lsh3			lsh4			llmal			lmmal			lcal			ltoe			lmt5			SBIKE			LBIKE			RBIKE			
		X1	Y1	Z1	X2	Y2	Z2	X3	Y3	Z3	X4	Y4	Z4	X5	Y5	Z5	X6	Y6	Z6	X7	Y7	Z7	X8	Y8	Z8	X9	Y9	Z9	X10	Y10	Z10	X11	Y11	Z11	X12	Y12	Z12	X13	Y13	Z13	X14	Y14	Z14	X15	Y15	Z15	X16	Y16	Z16	X17	Y17	Z17	X18	Y18	Z18	X19	Y19	Z19	X20	Y20	Z20	X21	Y21	Z21	X22	Y22	Z22	X23	Y23	Z23	X24	Y24	Z24	X25	Y25	Z25	X26	Y26	Z26	X27	Y27	Z27	X28	Y28	Z28	X29	Y29	Z29	X30	Y30	Z30	X31	Y31	Z31	X32	Y32	Z32	X33	Y33	Z33	X34	Y34	Z34	X35	Y35	Z35	X36	Y36	Z36	X37	Y37	Z37	X38	Y38	Z38	X39	Y39	Z39	X40	Y40	Z40	X41	Y41	Z41	X42	Y42	Z42	X43	Y43	Z43	X44	Y44	Z44	X45	Y45	Z45	X46	Y46	Z46	X47	Y47	Z47	X48	Y48	Z48	X49	Y49	Z49	
1251	6.2550	488.349648	1241.182918	-147.815306	493.784153	1251.407383	-399.449267	481.868928	1313.922282	-275.465942	406.365378	1170.617876	-276.776202	501.900879	1030.430645	27.809327	693.339933	917.143593	-61.803479	478.515216	1033.398905	-589.034326	683.737175	939.866716	-463.925589	-101.006584	1174.892988	-274.139039	41.478877	1180.376666	-420.440653	45.859826	1190.056491	-134.557849	87.950669	1126.533579	-381.180586	86.196441	1130.391637	-161.578650	-64.825968	1222.250569	-233.035291	-61.828401	1223.025837	-320.212532	3.033380	1070.830334	-101.958430	-17.597761	1079.985367	-442.612097	103.469137	1008.136710	-83.090129	187.772986	979.681115	-78.094064	244.677023	912.480011	-76.391777	207.558250	1008.574229	-90.096164	354.134895	814.206370	-93.705206	264.058793	752.567789	-69.633475	220.912860	677.411091	-82.718551	146.535266	632.341438	-90.355172	244.353167	656.993742	-106.107740	58.608852	534.743443	-99.921743	89.422628	549.532651	-178.481155	-7.815742	566.948417	-147.340315	154.036564	318.095972	-149.537005	74.173061	382.783153	-84.161613	84.310549	969.583249	-457.220171	161.857000	932.830708	-450.451009	185.386451	958.466878	-436.236344	211.181104	857.077005	-445.614305	305.115791	748.280288	-408.115921	288.352191	731.987983	-302.519315	269.319712	625.098820	-437.346180	277.192238	538.424744	-426.617016	240.543265	457.752320	-430.170003	304.835501	536.159323	-399.998558	223.800703	334.161492	-426.655672	NaN	NaN	NaN	164.511171	287.331851	-384.856960	459.341787	296.730024	-393.397763	353.563856	261.554195	-455.443435	-214.362032	912.496455	-268.683050	-43.537425	84.801388	-474.705688	-51.776436	80.139454	-77.204572	
1252	6.2600	488.630900	1242.065116	-145.635364	495.369558	1251.417718	-397.505060	483.287740	1314.197400	-273.672309	406.837098	1171.396998	-274.658067	502.017810	1030.631904	28.609607	693.665665	917.350080	-61.760639	480.918270	1035.169853	-588.997476	684.444937	939.682509	-463.545552	-99.103535	1175.087775	-276.405784	44.083529	1179.724430	-421.652787	46.160675	1191.538579	-136.133731	90.283050	1125.757303	-381.926697	86.927253	1131.972365	-162.591405	-63.860559	1222.809266	-235.936469	-59.839977	1223.096276	-322.712587	4.477008	1073.929671	-102.418958	-15.914133	1078.745718	-443.389078	105.222201	1013.124828	-83.179962	190.001964	986.605491	-78.063184	248.481096	920.390412	-76.098560	209.240674	1015.565988	-90.682322	359.412994	823.461567	-92.636123	269.128582	761.769785	-69.183049	225.774693	686.925355	-82.209858	151.219593	642.279967	-90.133122	248.784532	666.967289	-105.465642	62.949494	544.891609	-99.998163	94.079503	559.539295	-178.448495	-3.504028	576.416920	-147.865366	158.321134	328.182409	-149.473150	78.563135	392.943245	-84.141962	83.908008	966.148446	-457.877146	160.256317	926.912114	-450.980903	184.546375	951.842054	-436.675065	207.170734	849.655326	-446.115835	297.729386	737.790188	-408.419935	279.561783	722.058646	-303.225383	262.416770	614.344562	-438.088622	271.154624	527.971359	-427.084495	235.491434	446.778158	-430.690112	298.924514	526.187572	-400.921987	219.493724	324.118932	-427.137993	NaN	NaN	NaN	160.279188	277.434332	-385.246808	455.167984	286.646517	-393.382013	349.400341	251.454286	-455.521763	-214.254394	912.621091	-268.635545	-43.510821	84.835633	-474.682550	-51.770939	80.146490	-77.192580	
1253	6.2650	488.791276	1242.627477	-143.898567	496.937411	1251.547022	-395.458831	484.693869	1314.434166	-271.889439	407.166839	1172.219996	-273.024302	502.381971	1030.798137	29.648631	693.929167	917.540074	-61.635757	483.528359	1037.043042	-588.761711	685.136734	939.485088	-463.151297	-97.324961	1175.520518	-278.966549	46.916328	1179.152048	-423.034472	46.536858	1193.126470	-137.729359	92.603820	1125.037740	-382.773026	87.532249	1133.396145	-163.468592	-62.221939	1223.412277	-238.228060	-57.917802	1223.051628	-325.052589	5.753423	1076.847590	-103.417473	-14.263153	1077.531405	-444.232435	106.880233	1018.359634	-83.498731	192.228650	993.397315	-78.254568	251.975838	928.344804	-75.477803	210.837293	1022.520899	-91.404978	364.436806	832.751273	-91.880781	274.257341	770.862981	-68.488731	230.670434	696.354445	-81.715531	155.990598	651.860160	-89.844001	253.541967	676.140192	-105.025133	67.231481	554.750998	-100.160750	98.376192	569.562794	-178.392852	0.796342	586.127178	-147.968635	163.216904	338.230051	-149.508451	83.346253	402.858912	-84.213995	83.262894	962.623460	-458.515293	158.292233	921.074526	-451.603343	183.387511	945.180605	-437.239426	202.747898	842.331717	-446.642055	289.955638	727.539119	-408.880460	270.682136	712.340230	-304.073005	254.944814	604.033155	-439.036703	264.391901	517.831104	-427.685936	229.669718	436.218960	-431.217725	292.163436	516.384165	-401.304030	214.630150	314.505159	-427.603400	NaN	NaN	NaN	155.435395	267.987987	-385.641978	450.389096	276.838021	-393.403447	344.645540	241.668293	-455.605714	-214.197595	912.680400	-268.625531	-43.471242	84.875264	-474.701921	-51.735067	80.148797	-77.200903	
1254	6.2700	488.679478	1243.347940	-142.849161	498.425064	1251.681655	-393.509269	486.050835	1314.670047	-270.089025	407.179610	1173.204377	-271.626516	502.660716	1030.965089	30.766444	694.109908	917.776803	-61.470324	485.984109	1038.728262	-588.231931	685.959292	939.324306	-462.729257	-95.526394	1175.930968	-281.191636	49.810009	1178.593321	-424.403853	46.783907	1194.683397	-139.407575	94.916678	1124.486377	-383.510062	88.101939	1134.699839	-164.587060	-61.015443	1224.305859	-241.063883	-55.936973	1223.133335	-327.746903	6.875848	1080.023134	-104.184676	-12.595419	1076.331596	-445.060061	108.344364	1023.493920	-83.913088	194.290549	1000.274408	-78.596393	255.277698	936.449696	-75.136733	212.343000	1029.517306	-92.241257	369.236036	842.017016	-91.461278	279.253941	779.858990	-67.884089	234.391471	705.073075	-81.961358	160.690013	661.296530	-89.781253	258.010636	685.290692	-104.896999	71.740674	564.244966	-100.239201	103.129000	579.212170	-178.334994	5.145652	595.523007	-148.194146	168.931937	348.379688	-149.411999	88.747944	412.543609	-84.171022	82.463727	959.101748	-459.319323	156.059417	915.201486	-452.227614	181.935077	938.496327	-437.966599	197.955162	834.996695	-446.974061	282.089930	717.692723	-409.372715	262.153151	702.371931	-305.198139	247.019387	594.195722	-439.945004	257.160282	508.242985	-428.328280	223.071367	426.302721	-431.658386	285.120201	506.883630	-401.842538	209.253428	305.425135	-428.061454	NaN	NaN	NaN	150.005829	259.160508	-386.099012	445.090962	267.194029	-393.399267	339.363413	232.243332	-455.724954	-214.125095	912.746877	-268.645165	-43.437791	84.883769	-474.669957	-51.696066	80.175153	-77.194153	
